<svg width="512" height="512" viewBox="0 0 512 512" fill="none" xmlns="http://www.w3.org/2000/svg">
<path d="M448.001 213.332C450.803 213.333 453.577 212.781 456.166 211.71C458.755 210.638 461.107 209.066 463.088 207.085C465.069 205.104 466.64 202.752 467.712 200.163C468.784 197.575 469.335 194.8 469.335 191.999V127.999C469.336 123.522 467.929 119.159 465.311 115.528C462.693 111.897 458.999 109.182 454.751 107.77L262.751 43.7695C258.369 42.3112 253.633 42.3112 249.251 43.7695L57.2512 107.77C53.0038 109.182 49.3092 111.897 46.6916 115.528C44.0739 119.159 42.6661 123.522 42.668 127.999V191.999C42.6672 194.8 43.2185 197.575 44.2904 200.163C45.3622 202.752 46.9336 205.104 48.9147 207.085C50.8959 209.066 53.2479 210.638 55.8365 211.71C58.4251 212.781 61.1996 213.333 64.0013 213.332H85.3346V366.596C72.8917 370.979 62.1104 379.106 54.471 389.862C46.8316 400.617 42.7086 413.473 42.668 426.665V469.332C42.6672 472.134 43.2185 474.908 44.2904 477.497C45.3622 480.085 46.9336 482.437 48.9147 484.419C50.8959 486.4 53.2479 487.971 55.8365 489.043C58.4251 490.115 61.1996 490.666 64.0013 490.665H448.001C450.803 490.666 453.577 490.115 456.166 489.043C458.755 487.971 461.107 486.4 463.088 484.419C465.069 482.437 466.64 480.085 467.712 477.497C468.784 474.908 469.335 472.134 469.335 469.332V426.665C469.294 413.473 465.171 400.617 457.532 389.862C449.892 379.106 439.111 370.979 426.668 366.596V213.332H448.001ZM426.668 447.999H85.3346V426.665C85.3403 421.009 87.5897 415.586 91.5893 411.587C95.5888 407.587 101.012 405.338 106.668 405.332H405.335C410.991 405.338 416.414 407.587 420.413 411.587C424.413 415.586 426.662 421.009 426.668 426.665V447.999ZM128.001 362.665V213.332H170.668V362.665H128.001ZM213.335 362.665V213.332H298.668V362.665H213.335ZM341.335 362.665V213.332H384.001V362.665H341.335ZM85.3346 170.665V143.374L256.001 86.4776L426.668 143.374V170.665H85.3346Z" fill="black"/>
</svg>
