<svg xmlns="http://www.w3.org/2000/svg" enable-background="new 0 0 48 48" viewBox="0 0 48 48" id="caraccident">
  <path d="M9.095,33.551c0.105,0.113,0.234,0.121,0.36,0.079c-0.253,0.672,1.308,1.154,1.881,1.076
	c2.408-0.084,3.499-3.285,1.696-4.874C10.429,27.426,6.597,30.897,9.095,33.551z M10.103,33.227
	c-0.062-0.019-0.146-0.009-0.238,0.023c0.05-0.106,0.07-0.213,0.033-0.294c-0.62-1.392,0.725-2.58,1.764-1.665
	C12.642,32.21,11.372,33.749,10.103,33.227z M2.228,13.489c3.176-0.69,6.37-0.658,9.545,0.027c0.318,0.051,0.701,0.847,0,1
	c-3.175,0.692-6.371,0.658-9.545-0.027C1.657,14.343,1.889,13.562,2.228,13.489z M30.733,36.446
	c-1.58,0.386-3.163,0.477-4.742,0.478c-1.576-0.031-3.147-0.128-4.725-0.522c-0.312-0.051-0.585-0.874,0-1
	c3.153-0.677,6.319-0.639,9.467,0.045C31.046,35.498,31.329,36.301,30.733,36.446z M0.508,17.513c2.52-0.662,4.76-0.779,7.279-0.087
	c0.565,0.177,0.271,0.925,0.001,1c-2.515,0.682-5.056,0.772-7.575,0.079C-0.035,18.459-0.103,17.673,0.508,17.513z M4.85,35.545
	c0.44,0.23,0.171,0.92-0.001,1c-1.564,0.689-3.159,0.611-4.713-0.074c-0.148-0.038-0.2-0.829,0.192-1
	C1.894,34.787,3.296,34.86,4.85,35.545z M45.984,37.765c-0.906,0.575-1.855,1.065-2.813,1.595c0.64-2.161,2.391-8.069,2.391-8.069
	c0.169-0.52-0.243-1.084-0.792-1.076l-8.922-0.025l7.475-5.424c0.764-0.584,0.375-1.532-0.378-1.907c0,0-6.828-4.927-6.828-4.927
	c3.374,0.014,9.015,0.037,9.015,0.037c0.562,0.035,1.006-0.55,0.81-1.082l-2.9-8.403l2.878,1.817
	c2.049,1.324,2.987,0.936,0.555-0.832l-4.279-3.037c-0.473-0.36-1.184,0.16-0.97,0.725l2.759,9.097
	c-3.001-0.071-10.862-0.257-10.862-0.257c-0.115-0.007-0.222,0.01-0.321,0.042c-2.328-2.46-5.485-3.305-8.772-2.975
	c-3.272-0.015-6.896-0.575-9.928,0.956c-3.063,1.773-4.886,5.034-7.615,7.183c-2.615-0.292-5.112,1.91-5.114,4.515
	c0.071,0.62-0.039,1.563,0.052,2.309c-1.226-0.124-1.42,0.847-1.412,1.92c0.006,0.753,0.055,1.556,0.055,2.067
	c-0.016,0.537,0.423,0.987,0.964,0.964c1.355-0.053,2.709-0.164,4.064-0.37c0.705,6.873,11.068,7.176,11.561,0.07
	c4.831,0.57,9.668,0.471,14.497-0.09c0.741,7.038,10.526,7.154,11.455,0.254c0.266,0.125,0.534,0.185,0.804,0.177
	c-0.73,2.873-1.91,7.511-1.91,7.511c-0.192,0.545,0.492,1.058,0.961,0.703c1.452-1.151,4.776-2.54,5.524-4.162
	C47.978,36.733,47.097,37.081,45.984,37.765z M1.086,29.02c0-0.033,0-0.062,0-0.078C1.086,28.955,1.086,28.98,1.086,29.02
	C1.086,29.02,1.086,29.02,1.086,29.02z M38.247,31.994c-0.44,1.366-2.027,1.357-2.509,0.046L38.247,31.994z M34.117,29.07
	c0.44-0.528,0.999-0.955,1.654-1.219C35.172,28.292,34.609,28.708,34.117,29.07z M13.66,16.695c2.317-2.145,5.792-1.695,8.719-1.71
	c-0.239,2.109-0.362,4.219-0.384,6.33c-4.481,0.017-8.961,0.136-13.441,0.348C10.38,20.123,11.94,18.273,13.66,16.695z
	 M2.013,31.093c0.005-0.376,0.01-0.782,0.014-1.137c0.419-0.018,0.837-0.043,1.256-0.073c0.052,0.436,0.114,0.872,0.186,1.307
	C2.983,31.148,2.498,31.117,2.013,31.093z M2.384,28.073c0.082-0.474,0.102-1.05,0.122-1.527c0.506,0.13,1.011,0.225,1.517,0.292
	c-0.012,0.438-0.011,0.876,0.003,1.313C3.483,28.107,2.932,28.094,2.384,28.073z M5.105,31.384
	c-0.172-0.025-0.344-0.053-0.516-0.074c0.072-0.462,0.133-0.924,0.182-1.386c0.238,0.044,0.497,0.044,0.7-0.085
	C5.283,30.333,5.16,30.852,5.105,31.384z M13.735,35.12c-1.585,1.333-4.066,1.125-5.489-0.342c-3.565-3.67,0.92-9.057,5.348-6.375
	c0.252,0.14,0.505,0.229,0.706,0.192c-0.042,0.195,0.03,0.459,0.187,0.722C15.704,31.244,15.375,33.881,13.735,35.12z
	 M16.593,31.533c-0.216-1.068-0.865-3.019-2.033-3.187c0.035-0.204-0.077-0.497-0.374-0.749c-2.348-2.189-6.783-1.516-8.23,1.253
	c0.025-3.36,0.641-4.395-3.311-3.452c0.286-1.271,1.374-2.285,2.625-2.53c5.577,0.324,11.155,0.476,16.734,0.471
	c0.049,2.584,0.238,5.168,0.531,7.75C20.553,31.15,18.575,31.27,16.593,31.533z M26.851,14.935c1.708,0.126,3.393,1.064,4.686,2.19
	c1.983,1.675,4.167,3.147,6.326,4.57c-4.634-0.24-9.269-0.364-13.904-0.377c-0.07-2.109-0.196-4.216-0.463-6.328
	C24.639,14.988,25.798,14.964,26.851,14.935z M31.164,31.393c-2.391-0.295-4.788-0.365-7.178-0.344
	c-0.117,0.002-0.233,0.007-0.35,0.01c0.323-2.574,0.396-5.157,0.372-7.732c5.168-0.039,10.335-0.207,15.502-0.503
	c0.615,0.45,1.146,0.839,1.547,1.132c-0.879,0.648-2.172,1.601-3.497,2.577C34.605,25.844,31.401,28.323,31.164,31.393z
	 M34.146,34.758c-0.733-0.775-1.063-1.721-1.087-2.669l1.222-0.022c-0.097,3.985,5.674,3.875,5.399-0.099l1.848-0.034
	C41.43,35.499,36.497,37.536,34.146,34.758z" fill="#3563ea" class="color000000 svgShape"></path>
</svg>
