<svg width="512" height="512" viewBox="0 0 512 512" fill="none" xmlns="http://www.w3.org/2000/svg">
<path d="M383.189 108.699H128.813C111.845 108.72 95.578 115.469 83.5801 127.467C71.5822 139.465 64.8328 155.732 64.8125 172.699V339.299C64.8328 356.266 71.5822 372.533 83.5801 384.531C95.578 396.529 111.845 403.279 128.813 403.299H383.189C400.157 403.279 416.424 396.529 428.422 384.531C440.42 372.533 447.169 356.266 447.189 339.299V172.699C447.169 155.732 440.42 139.465 428.422 127.467C416.424 115.469 400.157 108.72 383.189 108.699ZM128.813 134.299H383.189C393.37 134.31 403.131 138.359 410.33 145.558C417.529 152.757 421.579 162.518 421.589 172.699V189.488H90.4125V172.699C90.4233 162.518 94.4725 152.757 101.672 145.558C108.871 138.359 118.632 134.31 128.813 134.299ZM383.189 377.699H128.813C118.632 377.688 108.871 373.639 101.672 366.44C94.4725 359.241 90.4233 349.48 90.4125 339.299V215.088H421.589V339.299C421.579 349.48 417.529 359.241 410.33 366.44C403.131 373.639 393.37 377.688 383.189 377.699ZM386.602 317.836C386.602 321.231 385.253 324.486 382.853 326.887C380.452 329.287 377.197 330.636 373.802 330.636H343.113C339.718 330.636 336.462 329.287 334.062 326.887C331.661 324.486 330.313 321.231 330.313 317.836C330.313 314.441 331.661 311.185 334.062 308.785C336.462 306.384 339.718 305.036 343.113 305.036H373.802C377.197 305.036 380.452 306.384 382.853 308.785C385.253 311.185 386.602 314.441 386.602 317.836Z" fill="black"/>
</svg>
