<svg width="512" height="512" viewBox="0 0 512 512" fill="none" xmlns="http://www.w3.org/2000/svg">
<g clip-path="url(#clip0_270_355)">
<path d="M256 512C115.2 512 0 396.8 0 256C0 115.2 115.2 0 256 0C396.8 0 512 115.2 512 256C512 396.8 396.8 512 256 512ZM256 42.6667C138.667 42.6667 42.6667 138.667 42.6667 256C42.6667 373.333 138.667 469.333 256 469.333C373.333 469.333 469.333 373.333 469.333 256C469.333 138.667 373.333 42.6667 256 42.6667Z" fill="black"/>
<path d="M256.001 341.333C243.201 341.333 234.668 332.8 234.668 320V305.067C234.668 273.067 251.735 245.333 277.335 230.4C294.401 221.867 302.935 202.667 298.668 185.6C296.535 168.533 281.601 153.6 264.535 151.467C251.735 149.333 238.935 151.467 228.268 160C219.735 166.4 213.335 179.2 213.335 192C213.335 204.8 204.801 213.333 192.001 213.333C179.201 213.333 170.668 204.8 170.668 192C170.668 166.4 181.335 142.933 200.535 125.867C219.735 108.8 245.335 102.4 270.935 106.667C305.068 113.067 332.801 140.8 339.201 174.933C345.601 211.2 328.535 247.467 296.535 264.533C283.735 270.933 277.335 285.867 277.335 302.933V320C277.335 332.8 268.801 341.333 256.001 341.333Z" fill="black"/>
<path d="M256.001 405.335C267.783 405.335 277.335 395.783 277.335 384.001C277.335 372.219 267.783 362.668 256.001 362.668C244.219 362.668 234.668 372.219 234.668 384.001C234.668 395.783 244.219 405.335 256.001 405.335Z" fill="black"/>
<path d="M256 416C238.933 416 224 401.067 224 384C224 366.933 238.933 352 256 352C273.067 352 288 366.933 288 384C288 401.067 273.067 416 256 416ZM256 373.333C249.6 373.333 245.333 377.6 245.333 384C245.333 390.4 249.6 394.667 256 394.667C262.4 394.667 266.667 390.4 266.667 384C266.667 377.6 262.4 373.333 256 373.333Z" fill="black"/>
</g>
<defs>
<clipPath id="clip0_270_355">
<rect width="512" height="512" fill="white"/>
</clipPath>
</defs>
</svg>
